<svg version="1" xmlns="http://www.w3.org/2000/svg" width="933.333" height="933.333" viewBox="0 0 700.000000 700.000000"><path d="M411.2 174.9l.3 25.6H493c44.8.1 82.2-.1 83.1-.3 1.5-.3 1.7-2.9 1.5-25.5l-.1-25.2-83.3-.1-83.2-.1.2 25.6zM184.7 247.6c-.1.1-4.2.5-9.2.8-14.3 1.1-37.8 6.2-48 10.5-33.7 14.2-57.8 34.8-75.9 64.8-10.5 17.5-19.9 43.9-23 64.8-.4 2.2-.9 5.3-1.1 7-1.4 9-1.7 13.9-2 34-.4 26.2.6 37 5.9 61 .8 3.4 3.9 13.5 5 16 .8 1.6 1.7 4.1 2.1 5.5 1.4 4.5 8.8 19.4 13.4 26.5 17.7 27.9 43.6 49.4 74.7 61.8 14.6 5.9 33.3 10.4 51.9 12.5 12.6 1.4 55.9.6 66.5-1.2 1.4-.3 4.3-.7 6.5-1.1 22.7-3.3 57.9-13 75.9-21l5.6-2.5v-54l-8.1 4c-16.6 8.4-45.7 19.1-58.1 21.5-1.1.2-2.7.6-3.6.9-.9.3-3.3.8-5.2 1.1-1.9.3-5.7 1-8.5 1.5-5.4 1-11.7 1.8-20.5 2.6-6.7.6-35.7.7-38.5.1-1.1-.3-4.9-.8-8.5-1.2-8.8-1-25.4-5.8-33.7-9.6-32.7-15.3-52.1-42.1-60.8-83.9-.7-3.7-2.5-16.9-2.7-21l-.3-4.5H346l.1-2.5c.5-16.2-.5-51.3-1.7-58-.2-1.4-.9-5.4-1.4-9-2.9-17.7-8.3-34.4-16.4-50.4-7.6-15-15.1-25.3-27.5-37.7-22.1-22.1-50.2-34.9-84.6-38.5-5.5-.6-29.3-1.2-29.8-.8zm33.4 50.8c22 5.3 38.8 16.4 51.5 34.3 7.6 10.6 14.9 27.6 16.9 39.3.3 1.9.8 4.6 1 6 .2 1.4.7 6.6 1.1 11.6l.7 9.1-2.9.4c-1.6.2-47.2.4-101.3.4-90.4 0-98.4-.1-98.6-1.6-.4-2.6 3.2-21.4 5.5-29.3 8.3-27.8 26-49.5 50-61.2 16.3-7.9 33.2-11.3 55-10.9 8.9.2 17 .9 21.1 1.9z"/></svg>