<svg version="1" xmlns="http://www.w3.org/2000/svg" width="2701.333" height="2701.333" viewBox="0 0 2026.000000 2026.000000"><path d="M1384.5 106.9c-8.3 4.3-16.5 8.7-18.3 9.8l-3.1 1.9 11.7 10.1c14.7 12.7 36.5 34.4 48.4 48.1 35.4 41 56.7 81.7 64.4 122.7 2.6 13.5 2.6 41.2.1 53.8-6 30-19.5 54.5-43.2 78.3-23.9 24.2-52.2 42-90.5 57.2-114.1 45.3-286.3 46.7-454.7 3.8l-17.1-4.4-48.4-24.1c-61.1-30.4-128.7-66.4-163.9-87.2-6.4-3.8-12-6.9-12.3-6.9-1.1 0-36.1 17.7-48 24.2-33.1 18.2-69.8 42.2-98.1 64.2-22.5 17.4-47.1 38.2-47.4 40.1-.2 1.3-6.9 8.1-10.3 10.6l-2.8 2-17.2-3.5c-23.3-4.8-54.8-10-74.8-12.5-63.9-7.8-102.3-4.6-116.8 9.9-13.5 13.5-4.1 35.5 28.9 67.5 22.5 21.8 48.9 42.1 92.9 71.4 185.7 123.7 529.9 286.3 875 413.3 30.9 11.4 113.3 40.6 125 44.3 3 1 5.9 2.1 6.3 2.5.4.3 0 2.5-1 4.7l-1.8 4.1-36.5-12.7c-62.2-21.8-119.4-42.8-180.9-66.5-15.1-5.8-27.6-10.4-27.9-10.1-.2.2.7.7 2.2 1.1 1.4.3 2.6.9 2.6 1.2 0 .3-11.6 23.5-25.9 51.6-14.2 28.1-48.7 96.3-76.6 151.6-28 55.3-50.8 100.6-50.9 100.7-.1 0-19.4-7.7-43.1-17.2-278.2-111.7-536-236.5-704.9-341.2-6.5-4.1-12-7.2-12.3-7-.2.2-1.2 7-2.3 14.9-9.8 73.1-9 141.9 2.3 215.2l2.3 14.8-3-.6c-30.5-5.5-76.7-7-94.1-3.2-10.4 2.3-19 6.9-22.3 11.9-2.3 3.4-2.7 5.1-2.7 10.6s.6 7.7 3.3 13c15.2 29.5 67 71 157.2 125.8 107.2 65.1 266 144.2 433 215.5 101.7 43.4 233.9 95.3 311.7 122.3.9.3 1 1.2.1 3.7-1.4 4.2-1.2 4-3.9 2.9-1.3-.6-14.8-5.5-29.9-11-125.2-45.1-276.7-107.1-409.8-167.6-4.5-2.1-8.4-3.6-8.6-3.4-.2.2-25.7 61.4-56.6 135.9-31 74.5-57.1 137.4-58.1 139.6l-1.7 4.1 16.1 11.5c119.6 85.2 263.2 144.2 408.7 167.7 58.7 9.5 98.4 12.6 161.5 12.6 46.5-.1 61.9-.8 99.5-4.6 151.2-15.3 297.1-65.5 427-146.9 8.5-5.4 17.8-10.9 20.6-12.3 6-3.1 9.9-7.3 11.5-12.6 6.5-21.8-32.5-62.3-112.9-117.1-2.1-1.5-1.7-1.8 14.1-14.2 49-38.4 93.3-83.8 131.9-135.3 6.6-8.7 12.3-16.5 12.7-17.3.6-1.1 3.4-.8 15.2 1.7 34.3 7.1 69.1 12.9 101 16.6 18.3 2.2 61.6 3.1 74.6 1.6 23.3-2.7 36.9-9.1 42.5-19.8 1.3-2.6 5.8-10.4 10-17.3 49-81.7 88.8-178.9 112.3-274 2.5-10.2 5.3-20.4 6.1-22.7 10.9-28.6-37.5-79-141.6-147.5-21.4-14.1-45.5-29.3-65-40.9l-7.5-4.5-.8-9.5c-5.7-71.6-18.6-134.6-40.6-199-3.8-10.9-6.6-19.9-6.2-19.9.4 0 13.7 3.1 29.6 6.9 52.3 12.5 94.7 20.5 134 25.2 23.1 2.8 60.8 3.1 72.5.7 11.9-2.5 19-5.6 23.6-10.2 7-6.9 7.8-14.1 2.8-25.6-1.3-3-3.7-11.6-5.4-19-20.4-89.8-58.4-185.4-107.1-269.6-87.6-151.6-216.8-279.3-369.4-365.3-31.3-17.7-95.8-49.1-100.6-49.1-.8 0-8.2 3.6-16.4 7.9zM1011 1716.2c1 .6.7.7-1 .2-1.4-.3-3.2-1.1-4-1.6-1-.6-.7-.7 1-.2 1.4.3 3.2 1.1 4 1.6zm17 5.8c.8.5 1.1 1 .5 1-.5 0-1.7-.5-2.5-1s-1-1-.5-1c.6 0 1.7.5 2.5 1z"/><path d="M956 956c.8.5 2 1 2.5 1 .6 0 .3-.5-.5-1s-1.9-1-2.5-1c-.5 0-.3.5.5 1zM963 959c.8.5 2 1 2.5 1 .6 0 .3-.5-.5-1s-1.9-1-2.5-1c-.5 0-.3.5.5 1zM975 964c.8.5 2 1 2.5 1 .6 0 .3-.5-.5-1s-1.9-1-2.5-1c-.5 0-.3.5.5 1zM982 967c.8.5 2 1 2.5 1 .6 0 .3-.5-.5-1s-1.9-1-2.5-1c-.5 0-.3.5.5 1zM987 969c.8.5 2 1 2.5 1 .6 0 .3-.5-.5-1s-1.9-1-2.5-1c-.5 0-.3.5.5 1zM999 974c.8.5 2 1 2.5 1 .6 0 .3-.5-.5-1s-1.9-1-2.5-1c-.5 0-.3.5.5 1zM1011 979c.8.5 2 1 2.5 1 .6 0 .3-.5-.5-1s-1.9-1-2.5-1c-.5 0-.3.5.5 1zM1016 981c.8.5 2 1 2.5 1 .6 0 .3-.5-.5-1s-1.9-1-2.5-1c-.5 0-.3.5.5 1zM1023 984c.8.5 2 1 2.5 1 .6 0 .3-.5-.5-1s-1.9-1-2.5-1c-.5 0-.3.5.5 1zM1028 986c.8.5 2 1 2.5 1 .6 0 .3-.5-.5-1s-1.9-1-2.5-1c-.5 0-.3.5.5 1zM1033 988c.8.5 2 1 2.5 1 .6 0 .3-.5-.5-1s-1.9-1-2.5-1c-.5 0-.3.5.5 1zM1038 990c.8.5 2 1 2.5 1 .6 0 .3-.5-.5-1s-1.9-1-2.5-1c-.5 0-.3.5.5 1zM1043 992c.8.5 2 1 2.5 1 .6 0 .3-.5-.5-1s-1.9-1-2.5-1c-.5 0-.3.5.5 1zM1048 994c.8.5 2 1 2.5 1 .6 0 .3-.5-.5-1s-1.9-1-2.5-1c-.5 0-.3.5.5 1zM1053 996c.8.5 2 1 2.5 1 .6 0 .3-.5-.5-1s-1.9-1-2.5-1c-.5 0-.3.5.5 1zM1058 998c.8.5 2 1 2.5 1 .6 0 .3-.5-.5-1s-1.9-1-2.5-1c-.5 0-.3.5.5 1zM1066.9 1001.5c2.9 1.4 5.5 2.4 5.8 2.2.2-.3-1.5-1.2-3.9-2.2-6.9-2.8-7.8-2.7-1.9 0zM1075 1005c.8.5 2 1 2.5 1 .6 0 .3-.5-.5-1s-1.9-1-2.5-1c-.5 0-.3.5.5 1zM1080 1007c.8.5 2 1 2.5 1 .6 0 .3-.5-.5-1s-1.9-1-2.5-1c-.5 0-.3.5.5 1zM1085 1009c.8.5 2 1 2.5 1 .6 0 .3-.5-.5-1s-1.9-1-2.5-1c-.5 0-.3.5.5 1zM1090 1011c.8.5 2 1 2.5 1 .6 0 .3-.5-.5-1s-1.9-1-2.5-1c-.5 0-.3.5.5 1zM1098 1014c.8.5 2 1 2.5 1 .6 0 .3-.5-.5-1s-1.9-1-2.5-1c-.5 0-.3.5.5 1zM1103 1016c.8.5 2 1 2.5 1 .6 0 .3-.5-.5-1s-1.9-1-2.5-1c-.5 0-.3.5.5 1zM1108 1018c.8.5 2 1 2.5 1 .6 0 .3-.5-.5-1s-1.9-1-2.5-1c-.5 0-.3.5.5 1zM1113 1020c.8.5 2 1 2.5 1 .6 0 .3-.5-.5-1s-1.9-1-2.5-1c-.5 0-.3.5.5 1zM1118 1022c.8.5 2 1 2.5 1 .6 0 .3-.5-.5-1s-1.9-1-2.5-1c-.5 0-.3.5.5 1z"/></svg>